# xmcd
#
# Track frame offsets: 
#        150
#        14387
#        27814
#        40157
#        54208
#        66385
#        78561
#        91006
#        104102
#        117455
#        130491
#        142445
#        154774
#        167715
#        180607
#        192267
#        203771
#        216649
#        229436
#        243542
#        256991
#        269754
#        279738
#        292588
#        305375
#        316612
#
# Disc length: 4370 seconds
#
# Revision: 0
# Processed by: cddbd v1.5.2PL0 Copyright (c) Steve Scherf et al.
# Submitted via: ExactAudioCopyFreeDBPlugin 1.0
#
DISCID=8b11101a
DTITLE=Various Artist - Great Gospel Performers (1937-1950)
DYEAR=1996
DGENRE=Gospel
TTITLE0=Mahalia Jackson - God's Gonna Separate the Wheat from the Tare
TTITLE0=s
TTITLE1=Mahalia Jackson - Oh, My Lord
TTITLE2=Mahalia Jackson - Keep Me Every Day
TTITLE3=Mahalia Jackson - God Shall Wipe All Tears Away
TTITLE4=Sister Lottie Peavy - When I Move to the Sky
TTITLE5=Sister Lottie Peavy - Nobody's Fault but Mine
TTITLE6=Sister Vera Copeland - I Know It Was the Blood
TTITLE7=Sister Vera Copeland - I Am Going Back to Jesus
TTITLE8=Elder Lightfoot Solomon Michaux - I Am So Happy Pt. 1
TTITLE9=Elder Lightfoot Solomon Michaux - I Am So Happy Pt. 2
TTITLE10=Evangelist Sister Rosetta Winn - Higher and Higher
TTITLE11=Evangelist Sister Rosetta Winn - Building on the Good Place
TTITLE12=Evangelist Sister Rosetta Winn - Do Lord Remember Me
TTITLE13=Evangelist Sister Rosetta Winn - Beautiful City
TTITLE14=Madame Ernestine - I'll Never Turn Back
TTITLE15=Madame Ernestine - When the Blood Runs Warm
TTITLE16=Prophet B. W. West - My Cup Runneth Over
TTITLE17=Prophet B. W. West - Laid My Burden Down
TTITLE18=Prophet B. W. West - Prayer Changes Things
TTITLE19=Prophet B. W. West - I'm Going Home to Live with God
TTITLE20=Sister Goldia Haynes - Traveling
TTITLE21=Sister Goldia Haynes - That Great Judgement Day (This Old Wor
TTITLE21=ld)
TTITLE22=Sister Goldia Haynes - Oh Lord, How Long?
TTITLE23=Sister Goldia Haynes - There's a Hand Leading Me
TTITLE24=Sister Goldia Haynes - I'm Going to Hold On
TTITLE25=Sister Goldia Haynes - The Truth in the Gospel
EXTD=
EXTT0=
EXTT1=
EXTT2=
EXTT3=
EXTT4=
EXTT5=
EXTT6=
EXTT7=
EXTT8=
EXTT9=
EXTT10=
EXTT11=
EXTT12=
EXTT13=
EXTT14=
EXTT15=
EXTT16=
EXTT17=
EXTT18=
EXTT19=
EXTT20=
EXTT21=
EXTT22=
EXTT23=
EXTT24=
EXTT25=
PLAYORDER=
